<svg xmlns="http://www.w3.org/2000/svg" width="17.764" height="15.769" viewBox="0 0 17.764 15.769">
  <g id="camera" transform="translate(-11 -38.5)">
    <g id="Group_7961" data-name="Group 7961" transform="translate(11 38.5)">
      <path id="Path_3447" data-name="Path 3447" d="M26.345,41.06H23.093l-.848-2.1a.741.741,0,0,0-.685-.464H18.212a.736.736,0,0,0-.685.464l-.848,2.1H13.422A2.424,2.424,0,0,0,11,43.482v8.365a2.424,2.424,0,0,0,2.422,2.422H26.342a2.424,2.424,0,0,0,2.422-2.422V43.482A2.421,2.421,0,0,0,26.345,41.06Zm-7.636-1.081h2.35l.435,1.077H18.27Zm8.579,11.868a.946.946,0,0,1-.943.943H13.422a.946.946,0,0,1-.943-.943V43.482a.946.946,0,0,1,.943-.943H26.342a.946.946,0,0,1,.943.943v8.365Z" transform="translate(-11 -38.5)" fill="#999"/>
      <path id="Path_3448" data-name="Path 3448" d="M148.447,179.7a4.047,4.047,0,1,0,4.047,4.047A4.053,4.053,0,0,0,148.447,179.7Zm0,6.614a2.567,2.567,0,1,1,2.567-2.567A2.572,2.572,0,0,1,148.447,186.314Z" transform="translate(-139.563 -174.58)" fill="#999"/>
    </g>
  </g>
</svg>
