<svg id="password" xmlns="http://www.w3.org/2000/svg" width="18.375" height="21" viewBox="0 0 18.375 21">
  <g id="Group_8190" data-name="Group 8190">
    <g id="Group_8189" data-name="Group 8189">
      <path id="Path_3491" data-name="Path 3491" d="M.823,0A.823.823,0,1,1,0,.823.823.823,0,0,1,.823,0Z" transform="translate(13.025 13.353)" fill="#fff"/>
      <path id="Path_3487" data-name="Path 3487" d="M49.555,14.848a.82.82,0,0,0,.82-.82V10.992a3.285,3.285,0,0,0-3.281-3.281h-.986V4.818a4.923,4.923,0,0,0-9.844,0V7.711h-.983A3.285,3.285,0,0,0,32,10.992v6.727A3.285,3.285,0,0,0,35.281,21H47.094a3.285,3.285,0,0,0,3.281-3.281.82.82,0,0,0-1.641,0,1.642,1.642,0,0,1-1.641,1.641H35.281a1.642,1.642,0,0,1-1.641-1.641V10.992a1.642,1.642,0,0,1,1.641-1.641H47.094a1.642,1.642,0,0,1,1.641,1.641v3.035A.82.82,0,0,0,49.555,14.848ZM44.467,7.711H37.9V4.818a3.283,3.283,0,0,1,6.563,0Z" transform="translate(-32)" fill="#fff"/>
      <path id="Path_3489" data-name="Path 3489" d="M.823,0A.823.823,0,1,1,0,.823.823.823,0,0,1,.823,0Z" transform="translate(6.851 13.353)" fill="#fff"/>
      <path id="Path_3488" data-name="Path 3488" d="M.823,0A.823.823,0,1,1,0,.823.823.823,0,0,1,.823,0Z" transform="translate(3.787 13.353)" fill="#fff"/>
      <path id="Path_3490" data-name="Path 3490" d="M.823,0A.823.823,0,1,1,0,.823.823.823,0,0,1,.823,0Z" transform="translate(9.915 13.353)" fill="#fff"/>
    </g>
  </g>
</svg>
