<svg xmlns="http://www.w3.org/2000/svg" width="41" height="41" viewBox="0 0 41 41">
  <g id="Group_8107" data-name="Group 8107" transform="translate(-1700 -10480)">
    <rect id="Rectangle_1089" data-name="Rectangle 1089" width="41" height="41" rx="20.5" transform="translate(1700 10480)" fill="#ff6060"/>
    <path id="close_1_" data-name="close (1)" d="M9.557,7.186,14,2.74A1.257,1.257,0,0,0,14,.962L13.41.369a1.257,1.257,0,0,0-1.778,0L7.186,4.815,2.741.368a1.257,1.257,0,0,0-1.778,0L.369.961a1.257,1.257,0,0,0,0,1.778L4.815,7.186.37,11.631a1.257,1.257,0,0,0,0,1.778L.962,14a1.257,1.257,0,0,0,1.778,0L7.186,9.557,11.632,14a1.257,1.257,0,0,0,1.778,0L14,13.41a1.257,1.257,0,0,0,0-1.778Zm0,0" transform="translate(1713 10494)" fill="#fff"/>
  </g>
</svg>
