<svg xmlns="http://www.w3.org/2000/svg" width="15.519" height="21" viewBox="0 0 15.519 21">
  <path id="google-documents" d="M38.1,0H29.779A1.15,1.15,0,0,0,28.63,1.149v18.7A1.15,1.15,0,0,0,29.779,21H43a1.15,1.15,0,0,0,1.149-1.149V5.67a1.142,1.142,0,0,0-.336-.812L38.9.324A1.141,1.141,0,0,0,38.1,0Zm4.617,19.564H30.066V1.436h6.87V5.288A1.544,1.544,0,0,0,38.478,6.83h4.235ZM38.478,5.394a.106.106,0,0,1-.106-.107V2.264l3.347,3.13H38.478Zm-5.935,3.09h7.8V9.92h-7.8Zm0,2.393h7.8v1.436h-7.8Zm0,2.393h7.8v1.436h-7.8Zm0,2.393h4.451V17.1H32.542Z" transform="translate(-28.63)" fill="#fff"/>
</svg>
