<svg xmlns="http://www.w3.org/2000/svg" width="14.6" height="17.822" viewBox="0 0 14.6 17.822">
  <g id="download-file" transform="translate(-0.5 0)">
    <path id="Path_3595" data-name="Path 3595" d="M14.946,2.641,12.46.154,12.453.148A.524.524,0,0,0,12.089,0H2.815A.524.524,0,0,0,2.29.524V11.171A3.561,3.561,0,1,0,7.07,16.166h7.506a.524.524,0,0,0,.524-.524V3.011a.524.524,0,0,0-.154-.371Zm-2.333-.851.694.694-.694,0ZM4.062,16.774a2.514,2.514,0,1,1,2.513-2.513A2.516,2.516,0,0,1,4.062,16.774Zm3.457-1.657a3.563,3.563,0,0,0-4.18-4.345V1.048h8.226V3a.524.524,0,0,0,.523.524l1.965.006V15.118Zm0,0" fill="#999"/>
    <path id="Path_3596" data-name="Path 3596" d="M53.4,356.872a.524.524,0,0,0-.731-.121l-.549.392V355.45a.524.524,0,1,0-1.048,0v1.669l-.486-.362a.524.524,0,1,0-.626.841l1.323.986h0a.522.522,0,0,0,.614.006h0l1.377-.986A.524.524,0,0,0,53.4,356.872Zm0,0" transform="translate(-47.539 -342.571)" fill="#999"/>
    <path id="Path_3597" data-name="Path 3597" d="M127.77,136.654h3.9a.524.524,0,0,0,0-1.048h-3.9a.524.524,0,0,0,0,1.048Zm0,0" transform="translate(-122.334 -130.885)" fill="#999"/>
    <path id="Path_3598" data-name="Path 3598" d="M134.083,195.828H127.77a.524.524,0,0,0,0,1.048h6.312a.524.524,0,0,0,0-1.048Zm0,0" transform="translate(-122.334 -189.011)" fill="#999"/>
    <path id="Path_3599" data-name="Path 3599" d="M134.083,256.055H127.77a.524.524,0,0,0,0,1.048h6.312a.524.524,0,0,0,0-1.048Zm0,0" transform="translate(-122.334 -247.142)" fill="#999"/>
  </g>
</svg>
