<svg xmlns="http://www.w3.org/2000/svg" width="106.828" height="81.581" viewBox="0 0 106.828 81.581">
  <g id="email" transform="translate(0 -60.5)">
    <g id="Group_577" data-name="Group 577" transform="translate(0 60.5)">
      <path id="Path_747" data-name="Path 747" d="M102.655,108.7a4.173,4.173,0,0,0,4.173-4.173V77.192A16.711,16.711,0,0,0,90.136,60.5H16.692A16.711,16.711,0,0,0,0,77.192v48.2a16.711,16.711,0,0,0,16.692,16.692H90.136a16.711,16.711,0,0,0,16.692-16.692,4.173,4.173,0,0,0-8.346,0,8.355,8.355,0,0,1-8.346,8.346H16.692a8.355,8.355,0,0,1-8.346-8.346V78.076L44.6,100.619a16.589,16.589,0,0,0,17.629,0L98.482,78.076v26.449A4.173,4.173,0,0,0,102.655,108.7ZM57.821,93.532a8.294,8.294,0,0,1-8.814,0L11.828,70.413a8.3,8.3,0,0,1,4.864-1.567H90.136A8.3,8.3,0,0,1,95,70.413Z" transform="translate(0 -60.5)" fill="#06c168"/>
    </g>
  </g>
</svg>
