<svg id="clock" xmlns="http://www.w3.org/2000/svg" width="21" height="21" viewBox="0 0 21 21">
  <path id="Path_3477" data-name="Path 3477" d="M18.791,5.525a.875.875,0,0,0-.407,1.169,8.661,8.661,0,0,1,.866,3.806A8.75,8.75,0,1,1,10.5,1.75a8.645,8.645,0,0,1,5.432,1.888.875.875,0,1,0,1.089-1.37A10.5,10.5,0,1,0,21,10.5a10.393,10.393,0,0,0-1.041-4.568.874.874,0,0,0-1.169-.407Zm0,0" transform="translate(0 0)" fill="#fff"/>
  <path id="Path_3478" data-name="Path 3478" d="M176.875,64a.875.875,0,0,0-.875.875V71a.875.875,0,0,0,.875.875h4.375a.875.875,0,0,0,0-1.75h-3.5v-5.25A.875.875,0,0,0,176.875,64Zm0,0" transform="translate(-166.375 -60.5)" fill="#fff"/>
</svg>
