<svg xmlns="http://www.w3.org/2000/svg" width="91.938" height="107.965" viewBox="0 0 91.938 107.965">
  <g id="surface1" transform="translate(0 0.001)">
    <path id="Path_736" data-name="Path 736" d="M91.831,29.293l0-.084c-.047-1.037-.078-2.134-.1-3.355a11.443,11.443,0,0,0-10.774-11.21C68.543,13.951,58.941,9.9,50.736,1.906l-.07-.067a6.909,6.909,0,0,0-9.39,0l-.07.067C33,9.9,23.4,13.951,10.984,14.645A11.442,11.442,0,0,0,.21,25.855c-.018,1.212-.05,2.31-.1,3.354l0,.2c-.241,12.658-.541,28.411,4.729,42.71A54.369,54.369,0,0,0,17.88,92.431c6.557,6.4,15.145,11.478,25.525,15.1a7.906,7.906,0,0,0,1.046.285,7.726,7.726,0,0,0,3.038,0,7.929,7.929,0,0,0,1.05-.287c10.368-3.626,18.947-8.708,25.5-15.106A54.445,54.445,0,0,0,87.081,72.1C92.371,57.758,92.072,41.975,91.831,29.293ZM81.137,69.907c-5.558,15.071-16.9,25.42-34.688,31.639a1.591,1.591,0,0,1-.2.054,1.422,1.422,0,0,1-.557,0,1.578,1.578,0,0,1-.2-.054C27.69,95.339,16.336,85,10.782,69.924,5.924,56.744,6.2,42.283,6.442,29.525l0-.071c.049-1.1.082-2.245.1-3.507a5.086,5.086,0,0,1,4.793-4.978A55.584,55.584,0,0,0,30.2,16.82,49.359,49.359,0,0,0,45.578,6.491a.584.584,0,0,1,.784,0A49.378,49.378,0,0,0,61.737,16.82,55.587,55.587,0,0,0,80.6,20.97,5.085,5.085,0,0,1,85.4,25.949c.019,1.268.052,2.417.1,3.506C85.74,42.227,86.008,56.7,81.137,69.907Zm0,0" transform="translate(0)" fill="#06c168"/>
    <path id="Path_737" data-name="Path 737" d="M117.3,128.41a26.907,26.907,0,1,0,26.906,26.906A26.937,26.937,0,0,0,117.3,128.41Zm0,47.478a20.571,20.571,0,1,1,20.571-20.571A20.594,20.594,0,0,1,117.3,175.888Zm0,0" transform="translate(-71.336 -101.333)" fill="#06c168"/>
    <path id="Path_738" data-name="Path 738" d="M174.97,212.92l-12.5,12.5-3.392-3.392a3.168,3.168,0,0,0-4.48,4.479l5.633,5.633a3.168,3.168,0,0,0,4.479,0L179.45,217.4a3.168,3.168,0,0,0-4.48-4.479Zm0,0" transform="translate(-121.268 -167.289)" fill="#06c168"/>
  </g>
</svg>
