<svg id="information" xmlns="http://www.w3.org/2000/svg" width="21.135" height="21.135" viewBox="0 0 21.135 21.135">
  <path id="Path_3600" data-name="Path 3600" d="M10.568,0A10.568,10.568,0,1,0,21.135,10.568,10.58,10.58,0,0,0,10.568,0Zm0,19.214a8.646,8.646,0,1,1,8.646-8.646A8.656,8.656,0,0,1,10.568,19.214Z" fill="#fff"/>
  <path id="Path_3601" data-name="Path 3601" d="M146.283,70a1.281,1.281,0,1,0,1.281,1.282A1.283,1.283,0,0,0,146.283,70Z" transform="translate(-135.715 -65.517)" fill="#fff"/>
  <path id="Path_3602" data-name="Path 3602" d="M150.961,140a.961.961,0,0,0-.961.961v5.764a.961.961,0,1,0,1.921,0v-5.764A.961.961,0,0,0,150.961,140Z" transform="translate(-140.393 -131.034)" fill="#fff"/>
</svg>
