<svg id="shop" xmlns="http://www.w3.org/2000/svg" width="16.106" height="16.106" viewBox="0 0 16.106 16.106">
  <g id="Group_8315" data-name="Group 8315" transform="translate(0 0)">
    <path id="Path_3504" data-name="Path 3504" d="M16.076,3.845,14.926.393A.575.575,0,0,0,14.38,0H1.726A.575.575,0,0,0,1.18.393L.029,3.845A.586.586,0,0,0,0,4.011V4.6A2.864,2.864,0,0,0,1.15,6.89v7.49a1.726,1.726,0,0,0,1.726,1.726H13.23a1.726,1.726,0,0,0,1.726-1.726V6.89A2.864,2.864,0,0,0,16.106,4.6V4.011A.585.585,0,0,0,16.076,3.845Zm-4-2.694h1.886l.767,2.3H12.079Zm-3.451,0h2.3v2.3h-2.3Zm-3.451,0h2.3v2.3h-2.3Zm-3.037,0H4.026v2.3H1.373ZM9.2,14.955H6.9v-4.6H9.2v4.6Zm4.6-.575a.575.575,0,0,1-.575.575H10.354V9.779A.575.575,0,0,0,9.778,9.2H6.327a.575.575,0,0,0-.575.575v5.177H2.876A.575.575,0,0,1,2.3,14.38V7.42a2.843,2.843,0,0,0,2.3-.528,2.915,2.915,0,0,0,3.451,0,2.915,2.915,0,0,0,3.451,0,2.843,2.843,0,0,0,2.3.528ZM13.23,6.327a1.7,1.7,0,0,1-1.292-.6.575.575,0,0,0-.866,0,1.735,1.735,0,0,1-2.585,0A.6.6,0,0,0,7.645,5.7L7.62,5.73a1.735,1.735,0,0,1-2.585,0A.6.6,0,0,0,4.194,5.7l-.026.026a1.7,1.7,0,0,1-1.292.6A1.726,1.726,0,0,1,1.15,4.6h13.8A1.726,1.726,0,0,1,13.23,6.327Z" transform="translate(0 0)" fill="#06c168"/>
  </g>
</svg>
