<svg xmlns="http://www.w3.org/2000/svg" width="9.018" height="10.404" viewBox="0 0 9.018 10.404">
  <g id="map" transform="translate(-34.093)">
    <g id="Group_5138" data-name="Group 5138" transform="translate(34.093)">
      <g id="Group_5137" data-name="Group 5137" transform="translate(0)">
        <path id="Path_1039" data-name="Path 1039" d="M38.6,0a4.426,4.426,0,0,0-4.509,4.327c0,3.238,4.137,5.908,4.314,6.02a.364.364,0,0,0,.391,0c.176-.112,4.314-2.782,4.314-6.02A4.426,4.426,0,0,0,38.6,0Zm0,9.6c-.8-.558-3.78-2.8-3.78-5.272a3.785,3.785,0,0,1,7.56,0C42.382,6.8,39.4,9.041,38.6,9.6Z" transform="translate(-34.093)" fill="#fff"/>
      </g>
    </g>
    <g id="Group_5140" data-name="Group 5140" transform="translate(36.548 1.981)">
      <g id="Group_5139" data-name="Group 5139" transform="translate(0)">
        <path id="Path_1040" data-name="Path 1040" d="M156.97,97.5a2.054,2.054,0,1,0,2.054,2.054A2.056,2.056,0,0,0,156.97,97.5Zm0,3.379a1.325,1.325,0,1,1,1.325-1.325A1.326,1.326,0,0,1,156.97,100.88Z" transform="translate(-154.916 -97.501)" fill="#fff"/>
      </g>
    </g>
  </g>
</svg>
