<svg xmlns="http://www.w3.org/2000/svg" width="117.074" height="117.073" viewBox="0 0 117.074 117.073">
  <path id="empty" d="M115.734,1.339a4.573,4.573,0,0,0-6.467,0l-12.7,12.7A58.538,58.538,0,0,0,14.036,96.57l-12.7,12.7a4.573,4.573,0,1,0,6.467,6.467L115.734,7.807a4.573,4.573,0,0,0,0-6.467ZM9.146,58.537A49.39,49.39,0,0,1,90.077,20.529L20.528,90.077A49.045,49.045,0,0,1,9.146,58.537ZM111.455,33.482a58.022,58.022,0,0,1,5.619,25.054c0,11.554-9.918,32.5-9.918,32.5s-2.33,2.032-3.806,2.032a4.574,4.574,0,0,1-3.8-7.115A49.25,49.25,0,0,0,103.19,37.4a4.573,4.573,0,1,1,8.264-3.919ZM90.367,102.357a4.573,4.573,0,0,1-1.542,6.281,58.63,58.63,0,0,1-54.846,3.05,4.573,4.573,0,0,1,3.841-8.3,49.485,49.485,0,0,0,46.266-2.572A4.573,4.573,0,0,1,90.367,102.357Z" transform="translate(0 0)" fill="#213741"/>
</svg>
