<svg id="Group_8063" data-name="Group 8063" xmlns="http://www.w3.org/2000/svg" width="13.411" height="13.411" viewBox="0 0 13.411 13.411">
  <g id="Path_3462" data-name="Path 3462" fill="none">
    <path d="M3.658,0h6.1a3.658,3.658,0,0,1,3.658,3.658v6.1a3.658,3.658,0,0,1-3.658,3.658h-6.1A3.658,3.658,0,0,1,0,9.754v-6.1A3.658,3.658,0,0,1,3.658,0Z" stroke="none"/>
    <path d="M 3.657576560974121 0.9999961853027344 C 2.19218635559082 0.9999961853027344 0.9999961853027344 2.19218635559082 0.9999961853027344 3.657576560974121 L 0.9999961853027344 9.753546714782715 C 0.9999961853027344 11.21894645690918 2.19218635559082 12.41113662719727 3.657576560974121 12.41113662719727 L 9.753546714782715 12.41113662719727 C 11.21894645690918 12.41113662719727 12.41113662719727 11.21894645690918 12.41113662719727 9.753546714782715 L 12.41113662719727 3.657576560974121 C 12.41113662719727 2.19218635559082 11.21894645690918 0.9999961853027344 9.753546714782715 0.9999961853027344 L 3.657576560974121 0.9999961853027344 M 3.657576560974121 -3.814697265625e-06 L 9.753546714782715 -3.814697265625e-06 C 11.7735767364502 -3.814697265625e-06 13.41113662719727 1.637556076049805 13.41113662719727 3.657576560974121 L 13.41113662719727 9.753546714782715 C 13.41113662719727 11.7735767364502 11.7735767364502 13.41113662719727 9.753546714782715 13.41113662719727 L 3.657576560974121 13.41113662719727 C 1.637556076049805 13.41113662719727 -3.814697265625e-06 11.7735767364502 -3.814697265625e-06 9.753546714782715 L -3.814697265625e-06 3.657576560974121 C -3.814697265625e-06 1.637556076049805 1.637556076049805 -3.814697265625e-06 3.657576560974121 -3.814697265625e-06 Z" stroke="none" fill="#d40000"/>
  </g>
  <path id="Path_3463" data-name="Path 3463" d="M3.048,0A3.048,3.048,0,1,1,0,3.048,3.048,3.048,0,0,1,3.048,0Z" transform="translate(3.658 3.658)" fill="#d40000"/>
</svg>
