<svg xmlns="http://www.w3.org/2000/svg" width="41" height="41" viewBox="0 0 41 41">
  <g id="Group_8294" data-name="Group 8294" transform="translate(-35 -107)">
    <path id="Rectangle_1089" data-name="Rectangle 1089" d="M20.044,0H20.5A20.5,20.5,0,0,1,41,20.5v0A20.5,20.5,0,0,1,20.5,41h0A20.5,20.5,0,0,1,0,20.5v-.456A20.044,20.044,0,0,1,20.044,0Z" transform="translate(35 107)" fill="#132229"/>
    <path id="Path_3498" data-name="Path 3498" d="M-4.929-11.588l1.768-5.277H.154l.249-.8H-2.913l2.127-6.271H2.447l.193-.8H-.537l1.768-5.277H.32l-1.741,5.277H-4.846l1.741-5.277h-.912l-1.741,5.277H-9.046l-.221.8h3.232l-2.1,6.271h-3.2l-.249.8H-8.41l-1.768,5.277h.912L-7.5-16.865h3.453l-1.8,5.277Zm1.105-6.078h-3.4l2.1-6.271H-1.7Z" transform="translate(59.588 148.794)" fill="#06c168"/>
  </g>
</svg>
