<svg xmlns="http://www.w3.org/2000/svg" width="117.073" height="117.072" viewBox="0 0 117.073 117.072">
  <g id="no-signal" transform="translate(-0.001 0)">
    <g id="Group_8046" data-name="Group 8046" transform="translate(0.001 19.512)">
      <g id="Group_8045" data-name="Group 8045">
        <path id="Path_3455" data-name="Path 3455" d="M116.5,179.561l-15.61-15.61-48.78-48.78L22.844,85.9a1.951,1.951,0,1,0-2.759,2.759L47.974,116.55l-47.4,47.4a1.951,1.951,0,0,0,1.379,3.331H98.706l15.038,15.038a1.951,1.951,0,0,0,2.759-2.759Z" transform="translate(-0.001 -85.33)" fill="#213741"/>
      </g>
    </g>
    <g id="Group_8048" data-name="Group 8048" transform="translate(56.587 0)">
      <g id="Group_8047" data-name="Group 8047">
        <path id="Path_3456" data-name="Path 3456" d="M291.143.148a1.958,1.958,0,0,0-2.127.421L248.041,41.491a1.953,1.953,0,0,0,0,2.759l40.976,41.032a1.953,1.953,0,0,0,3.333-1.38V1.951A1.952,1.952,0,0,0,291.143.148Z" transform="translate(-247.469 0)" fill="#213741"/>
      </g>
    </g>
  </g>
</svg>
