<svg xmlns="http://www.w3.org/2000/svg" xmlns:xlink="http://www.w3.org/1999/xlink" width="145.129" height="184.886" viewBox="0 0 145.129 184.886">
  <defs>
    <linearGradient id="linear-gradient" y1="0.5" x2="1" y2="0.5" gradientUnits="objectBoundingBox">
      <stop offset="0" stop-color="#f9b776"/>
      <stop offset="1" stop-color="#f47960"/>
    </linearGradient>
    <linearGradient id="linear-gradient-3" x1="1.604" y1="-1.26" x2="0.67" y2="0.174" gradientUnits="objectBoundingBox">
      <stop offset="0" stop-color="#fdf53f"/>
      <stop offset="1" stop-color="#d93c65"/>
    </linearGradient>
    <linearGradient id="linear-gradient-4" y1="0.5" x2="1" y2="0.5" gradientUnits="objectBoundingBox">
      <stop offset="0" stop-color="#53d8ff"/>
      <stop offset="1" stop-color="#3840f7"/>
    </linearGradient>
    <linearGradient id="linear-gradient-5" y1="0.5" x2="1" y2="0.5" gradientUnits="objectBoundingBox">
      <stop offset="0" stop-color="#2b3582"/>
      <stop offset="1" stop-color="#150e42"/>
    </linearGradient>
    <linearGradient id="linear-gradient-10" x1="1.232" y1="-0.48" x2="0.4" y2="0.465" xlink:href="#linear-gradient-5"/>
    <linearGradient id="linear-gradient-11" x1="0.457" y1="0.621" x2="-0.594" y2="3.605" xlink:href="#linear-gradient-5"/>
    <linearGradient id="linear-gradient-12" x1="0.88" y1="-0.009" x2="-1.066" y2="2.599" xlink:href="#linear-gradient-5"/>
    <linearGradient id="linear-gradient-13" x1="2.643" y1="-1.711" x2="0.681" y2="0.377" xlink:href="#linear-gradient-3"/>
    <linearGradient id="linear-gradient-14" x1="0.841" y1="-0.19" x2="0.159" y2="1.19" gradientUnits="objectBoundingBox">
      <stop offset="0" stop-color="#f9c200"/>
      <stop offset="0.996" stop-color="#9b1e5f"/>
    </linearGradient>
    <linearGradient id="linear-gradient-15" x1="0.652" y1="-14.71" x2="1.833" y2="-15.518" xlink:href="#linear-gradient"/>
    <linearGradient id="linear-gradient-16" x1="-15.121" y1="-1.564" x2="-16.194" y2="-0.282" xlink:href="#linear-gradient"/>
    <linearGradient id="linear-gradient-17" x1="-11.084" y1="-0.763" x2="-10.254" y2="-0.763" xlink:href="#linear-gradient-5"/>
    <linearGradient id="linear-gradient-18" x1="-47.529" y1="-4.011" x2="-45.071" y2="-6.66" xlink:href="#linear-gradient"/>
    <linearGradient id="linear-gradient-19" x1="0.541" y1="-0.001" x2="2.541" y2="2.222" xlink:href="#linear-gradient-3"/>
    <linearGradient id="linear-gradient-20" x1="11.107" y1="-2.963" x2="13.706" y2="-2.128" xlink:href="#linear-gradient-3"/>
    <linearGradient id="linear-gradient-21" x1="-1.159" y1="1.854" x2="0.667" y2="0.355" xlink:href="#linear-gradient-3"/>
    <linearGradient id="linear-gradient-22" x1="-0.921" y1="-0.16" x2="1.109" y2="0.927" xlink:href="#linear-gradient"/>
    <linearGradient id="linear-gradient-23" x1="1.921" y1="-2.518" x2="8.434" y2="-0.518" xlink:href="#linear-gradient"/>
    <linearGradient id="linear-gradient-24" x1="1.927" y1="-1.394" x2="0.354" y2="0.431" xlink:href="#linear-gradient-3"/>
    <linearGradient id="linear-gradient-25" x1="-9.511" y1="-7.836" x2="-7.067" y2="-5.79" xlink:href="#linear-gradient-3"/>
  </defs>
  <g id="Group_8325" data-name="Group 8325" transform="translate(-930.396 -374.421)">
    <g id="Group_8318" data-name="Group 8318" transform="translate(1016.976 374.421)">
      <path id="Path_3510" data-name="Path 3510" d="M1297.022,409.29l33.7-26.361a.752.752,0,0,0,.257-.374l2.091-6.829a.755.755,0,0,1,.349-.435l1.358-.771a.755.755,0,0,1,.446-.095l4.222.411a.754.754,0,0,1,.671.63l.32,1.975a.753.753,0,0,1-.124.55l-.567.819a.753.753,0,0,0-.04.793h0a.751.751,0,0,1-.1.864,15.3,15.3,0,0,1-5.276,3.709.75.75,0,0,0-.256.179l-32.291,33.977C1301.492,418.643,1296.661,409.571,1297.022,409.29Z" transform="translate(-1281.891 -374.421)" fill="url(#linear-gradient)"/>
      <path id="Path_3511" data-name="Path 3511" d="M1435.951,391.258a.172.172,0,0,1-.084-.022.175.175,0,0,1-.069-.237c.042-.076,1.041-1.861,2.294-1.476.982.3,1.256.189,1.259.188a.168.168,0,0,1,.235.052.18.18,0,0,1-.055.245c-.077.052-.417.193-1.541-.153-.986-.3-1.878,1.295-1.887,1.311A.174.174,0,0,1,1435.951,391.258Z" transform="translate(-1382.171 -385.295)" fill="url(#linear-gradient)"/>
      <path id="Path_3512" data-name="Path 3512" d="M1257.75,499.837,1242.524,512.6l4.712,10.894,17.11-15.829C1261.042,505.394,1258.747,502.815,1257.75,499.837Z" transform="translate(-1242.524 -465.048)" fill="url(#linear-gradient-3)"/>
    </g>
    <g id="Group_8319" data-name="Group 8319" transform="translate(930.396 534.779)">
      <path id="Path_3513" data-name="Path 3513" d="M932.588,962.834a8.026,8.026,0,0,1,1.446-4.212c-1.437.47-1.978,1.538-2.313,4.394-.4,3.4-1.111,12.6-1.3,14.631a4.209,4.209,0,0,0,1.3,3.7c.213.218.548.117.943-.193a6.62,6.62,0,0,1-1.291-2.952C931.119,976.83,932.254,967.329,932.588,962.834Z" transform="translate(-930.396 -956.93)" fill="url(#linear-gradient-4)"/>
      <path id="Path_3514" data-name="Path 3514" d="M944.435,955.759l-2.5-3.236A19.739,19.739,0,0,1,937.4,954a5.9,5.9,0,0,0-.914.212,8.027,8.027,0,0,0-1.446,4.212c-.334,4.495-1.47,14-1.215,15.363a6.62,6.62,0,0,0,1.291,2.952,12.749,12.749,0,0,0,2.665-3.691c1.195-2.305,5.245-9.2,6.194-11.78A12.337,12.337,0,0,0,944.435,955.759Z" transform="translate(-932.846 -952.523)" fill="url(#linear-gradient-5)"/>
    </g>
    <g id="Group_8320" data-name="Group 8320" transform="translate(971.181 503.929)">
      <path id="Path_3515" data-name="Path 3515" d="M1082.208,847.982a8.026,8.026,0,0,1,2.123-3.915c-1.495.225-2.2,1.189-3.008,3.95-.955,3.284-3.18,12.238-3.7,14.214a4.21,4.21,0,0,0,.669,3.859c.174.25.521.206.962-.034a6.622,6.622,0,0,1-.785-3.124C1078.443,861.542,1081.135,852.36,1082.208,847.982Z" transform="translate(-1077.431 -843.301)" fill="url(#linear-gradient-4)"/>
      <path id="Path_3516" data-name="Path 3516" d="M1094.616,844.911l-1.927-3.6a19.729,19.729,0,0,1-4.723.708,5.921,5.921,0,0,0-.937.058,8.023,8.023,0,0,0-2.123,3.915c-1.074,4.378-3.765,13.56-3.741,14.951a6.621,6.621,0,0,0,.785,3.125,12.747,12.747,0,0,0,3.239-3.2c1.56-2.075,6.7-8.209,8.058-10.592A12.335,12.335,0,0,0,1094.616,844.911Z" transform="translate(-1080.13 -841.306)" fill="url(#linear-gradient-5)"/>
    </g>
    <path id="Path_3517" data-name="Path 3517" d="M960.293,935.8c-.437.574-3.627,6.377-4.318,7.635a1.877,1.877,0,0,0-.222.679,2.848,2.848,0,0,0,1.361,2.813,1.915,1.915,0,0,0,2.581-.438l5.8-7.633Z" transform="translate(-18.308 -405.659)" fill="url(#linear-gradient)"/>
    <path id="Path_3518" data-name="Path 3518" d="M1118.783,826.3c-.527.493-4.632,5.688-5.522,6.815a1.877,1.877,0,0,0-.331.633,2.848,2.848,0,0,0,.877,3,1.915,1.915,0,0,0,2.618-.005l6.235-7.193Z" transform="translate(-131.813 -326.535)" fill="url(#linear-gradient)"/>
    <path id="Path_3519" data-name="Path 3519" d="M1021.491,722.42c0-1.611,9.242-1.039,17.344-1.975a4.558,4.558,0,0,1,3.8,7.7L1018.1,753.465a1.936,1.936,0,0,1-1.986.5,11.857,11.857,0,0,1-3.6-1.869,1.75,1.75,0,0,1-.324-2.376l11.279-16.058-10.29,2.968-39.047,48.3a2.025,2.025,0,0,1-2.652.442,16.456,16.456,0,0,1-3.691-3.009,1.885,1.885,0,0,1-.114-2.242c4.308-6.581,27.717-42.44,28.827-46.165,1.223-4.1,5.715-11.616,9.915-11.884S1021.491,722.42,1021.491,722.42Z" transform="translate(-26.707 -250.017)" fill="url(#linear-gradient-10)"/>
    <path id="Path_3520" data-name="Path 3520" d="M1171.173,759.659a.261.261,0,0,1-.067-.514l9.257-2.454a.261.261,0,1,1,.134.505l-9.257,2.455A.267.267,0,0,1,1171.173,759.659Z" transform="translate(-173.8 -276.226)" fill="url(#linear-gradient-11)"/>
    <path id="Path_3521" data-name="Path 3521" d="M1135.17,768.558a.261.261,0,0,1-.192-.438l2.312-2.506a.261.261,0,1,1,.384.354l-2.312,2.506A.26.26,0,0,1,1135.17,768.558Z" transform="translate(-147.784 -282.62)" fill="url(#linear-gradient-12)"/>
    <path id="Path_3522" data-name="Path 3522" d="M1138.347,533.153a17.769,17.769,0,0,1,4.05,13.61,13.532,13.532,0,0,1-2.8,6.955l-24.691,31.858a3.487,3.487,0,0,1-2.33,1.327c-3.632.445-13.289,1.316-20.123-.948a.912.912,0,0,1-.5-1.318l22.445-39.495,13.6-15.819A9.013,9.013,0,0,1,1138.347,533.153Z" transform="translate(-116.659 -111.646)" fill="url(#linear-gradient-13)"/>
    <path id="Path_3523" data-name="Path 3523" d="M1002.966,653.023a.277.277,0,0,1-.133-.521c.1-.052,9.574-5.213,11.589-6.881a.277.277,0,1,1,.354.427c-2.057,1.7-11.286,6.728-11.678,6.941A.274.274,0,0,1,1002.966,653.023Z" transform="translate(-52.24 -195.927)" fill="url(#linear-gradient-14)"/>
    <g id="Group_8321" data-name="Group 8321" transform="translate(1012.714 394.382)">
      <path id="Path_3524" data-name="Path 3524" d="M1243.735,490.553l-7.378,10.418a1.743,1.743,0,0,0,.153,2.2,9.247,9.247,0,0,0,4.478,2.9,1.406,1.406,0,0,0,1.444-.608l3.924-6.023S1247.106,489.977,1243.735,490.553Z" transform="translate(-1233.574 -478.282)" fill="url(#linear-gradient-15)"/>
      <path id="Path_3525" data-name="Path 3525" d="M1249.949,458.022c.149.14,6.3,12.21,6.3,12.21l-6.966,3.363-7.525-10.574S1247.452,455.671,1249.949,458.022Z" transform="translate(-1237.706 -454.457)" fill="url(#linear-gradient-16)"/>
      <path id="Path_3526" data-name="Path 3526" d="M1234.374,456.212l3.474,5.792a1.087,1.087,0,0,0,.191.237c.414.385,1.828,1.5,2.922-.02a9.809,9.809,0,0,1,2.745-2.968,1.111,1.111,0,0,1,1.5.493,41.508,41.508,0,0,1,2.378,5.64,1.106,1.106,0,0,1-.644,1.356,30.82,30.82,0,0,1-6.672,1.946,1.111,1.111,0,0,1-1.051-.447c-1.064-1.458-4.064-5.533-5.088-6.553-.951-.948-2.707-.59-3.5-.363a1.117,1.117,0,0,1-.888-.116,2.448,2.448,0,0,1-.922-3.725,1.112,1.112,0,0,0-.344-1.511,2.458,2.458,0,0,1-.942-3.488,3.466,3.466,0,0,1,3.753-1.837,1.153,1.153,0,0,0,1.21-.673c.2-.478.724-.291.979-.617.224-.285.161-.484.305-.738.459-.813.427-1.466,1.481-1.93a4.674,4.674,0,0,1,2.628-.227,3.108,3.108,0,0,1,1.378.508,3.853,3.853,0,0,1,.848,1.008,2.951,2.951,0,0,1,.7,2.55c-.5,1.29-2.649,1.527-3.785,1.927a4.271,4.271,0,0,0-2.744,2.777A1.114,1.114,0,0,0,1234.374,456.212Z" transform="translate(-1227.16 -446.38)" fill="url(#linear-gradient-17)"/>
      <path id="Path_3527" data-name="Path 3527" d="M1243.774,499.418s-1.336-3.911-3.047-3.767-3.057,1.848-.937,3.764C1242.427,501.8,1243.774,499.418,1243.774,499.418Z" transform="translate(-1235.501 -481.981)" fill="url(#linear-gradient-18)"/>
    </g>
    <g id="Group_8323" data-name="Group 8323" transform="translate(986.868 435.234)">
      <path id="Path_3528" data-name="Path 3528" d="M1194.693,625.9V599.925a6.224,6.224,0,0,0-6.156-6.227c-10.243-.112-31.369-.117-48.654,1.339a4.679,4.679,0,0,0-4.279,4.5l-1.615,25.115a5.947,5.947,0,0,0,5.83,6.161l48.925.93A5.839,5.839,0,0,0,1194.693,625.9Z" transform="translate(-1133.984 -593.654)" fill="url(#linear-gradient-19)"/>
    </g>
    <g id="Group_8324" data-name="Group 8324" transform="translate(1011.755 393.449)">
      <path id="Path_3539" data-name="Path 3539" d="M1239.666,447.919c-5.914-11.171-21.242-1.023-14.108,8.388C1230.861,452.78,1236.855,447.538,1239.666,447.919Z" transform="translate(-1223.703 -443.019)" fill="url(#linear-gradient-20)"/>
    </g>
    <path id="Path_3540" data-name="Path 3540" d="M1173.062,573.568l-13.286-6.809s-9.485,9.351-11.912,22.063a34.921,34.921,0,0,1,12.827,3.438C1161.782,586.257,1173.062,573.568,1173.062,573.568Z" transform="translate(-157.145 -138.986)" fill="url(#linear-gradient-21)"/>
    <path id="Path_3541" data-name="Path 3541" d="M1183.124,653.248s-16.567,9.363-22.157,1.368a6.285,6.285,0,0,1-1.152-4.883,34.921,34.921,0,0,0-12.827-3.438,17.544,17.544,0,0,0,1.907,12.027c9.792,17.911,36.422-.99,36.422-.99Z" transform="translate(-156.269 -196.46)" fill="url(#linear-gradient-22)"/>
    <path id="Path_3542" data-name="Path 3542" d="M1273.5,660.742a1.9,1.9,0,0,1-2.339-1.486c-.331-1.679-.738-4.254-.411-5.439.508-1.837,1.492-4.2,4.774-3.675a48.026,48.026,0,0,1,7.151,1.907,1.878,1.878,0,0,1-2.689,1.621l1.546,1.2s-.221,1.916-2.327.892l1.438,1.587a1.676,1.676,0,0,1-2.454.564C1276.907,657.078,1276.178,660.031,1273.5,660.742Z" transform="translate(-245.854 -199.186)" fill="url(#linear-gradient-23)"/>
    <path id="Path_3543" data-name="Path 3543" d="M977.095,570.222a.887.887,0,0,0-.624,1.268c1.2,2.413,4.724,7.737,11.99,6.058,9.3-2.149,37.687-23.6,44.113-29.465s14.936-13.165,19.1-12.146,1.652-1.393-1.232-3.329-3.955-4.778-1.807-4.247c0,0-5.178-1.68-13.088,2.678-7.729,4.26-45.469,18.821-58.1,14.6a.807.807,0,0,0-1.047.63c-.5,2.878-1.266,11.888,6.12,22.025A24.754,24.754,0,0,1,977.095,570.222Z" transform="translate(-33.023 -111.009)" fill="url(#linear-gradient-24)"/>
    <path id="Path_3544" data-name="Path 3544" d="M1247.585,464.73l10.62-.328a.767.767,0,0,0,.647-.394,7.181,7.181,0,0,1,4.084-3.414.215.215,0,0,0-.058-.417l-6.51-.443h-.022c-3.245.25-6.117,2.2-8.857,4.759A.136.136,0,0,0,1247.585,464.73Z" transform="translate(-229.104 -61.648)" fill="url(#linear-gradient-25)"/>
  </g>
</svg>
