<svg xmlns="http://www.w3.org/2000/svg" width="26.536" height="21.768" viewBox="0 0 26.536 21.768">
  <g id="restaurant" transform="translate(0 -46)">
    <g id="Group_8054" data-name="Group 8054" transform="translate(0 46)">
      <g id="Group_8053" data-name="Group 8053">
        <path id="Path_3457" data-name="Path 3457" d="M26.213,46.146a.778.778,0,0,0-.7-.107,7.588,7.588,0,0,0-3.905,2.968A11.022,11.022,0,0,0,7.774,47.954V46.777a.777.777,0,0,0-1.555,0v4.665a.778.778,0,0,1-.777.777H4.665V46.777a.777.777,0,0,0-1.555,0v5.442H2.332a.778.778,0,0,1-.777-.777V46.777a.777.777,0,0,0-1.555,0v4.665a2.335,2.335,0,0,0,2.332,2.332H3.11v3.11H2.332a.777.777,0,0,0-.777.777v7.774a2.332,2.332,0,0,0,4.665,0v-.942a10.989,10.989,0,0,0,15.652,0v.942a2.332,2.332,0,0,0,4.665,0V46.777A.778.778,0,0,0,26.213,46.146ZM4.665,65.435a.777.777,0,1,1-1.555,0v-7H4.665Zm17.207-3.395a9.426,9.426,0,0,1-15.652,0V57.661a.777.777,0,0,0-.777-.777H4.665v-3.11h.777a2.335,2.335,0,0,0,2.332-2.332v-1.51a9.493,9.493,0,0,1,6.271-2.377,9.39,9.39,0,0,1,6.8,2.893,7.6,7.6,0,0,0-.533,2.8v5.967a.777.777,0,0,0,.777.777h.777v2.047Zm3.11,3.395a.777.777,0,0,1-1.555,0V59.993h1.555Zm0-7h-3.11v-5.19a6.042,6.042,0,0,1,3.11-5.285Z" transform="translate(0 -46)" fill="#fff"/>
      </g>
    </g>
    <g id="Group_8056" data-name="Group 8056" transform="translate(7.829 49.109)">
      <g id="Group_8055" data-name="Group 8055">
        <path id="Path_3458" data-name="Path 3458" d="M161.834,115.584a5.535,5.535,0,0,0,.03-1.9,5.454,5.454,0,0,0-2.056-3.444,3.89,3.89,0,0,0,2.124-3.462.777.777,0,0,0-.777-.777H159.6a3.873,3.873,0,0,0-2.693,1.088,2.331,2.331,0,1,0-3.515,2.991,5.423,5.423,0,0,0-.81.686,5.437,5.437,0,0,0,2.3,8.987,5.405,5.405,0,0,1,1.922,1.054,3.114,3.114,0,0,0,5.126-2.368A8.815,8.815,0,0,1,161.834,115.584Zm-2.234-8.029h.644a2.336,2.336,0,0,1-2.2,1.555H157.4A2.336,2.336,0,0,1,159.6,107.555Zm-4.665,0a.777.777,0,1,1-.777.777A.778.778,0,0,1,154.935,107.555Zm2.879,12.068a6.952,6.952,0,0,0-2.471-1.356,3.882,3.882,0,0,1-1.645-6.42,3.839,3.839,0,0,1,2.783-1.183h.026a3.882,3.882,0,0,1,3.821,3.258,3.986,3.986,0,0,1-.021,1.368,8.619,8.619,0,0,0,.07,3.148A1.557,1.557,0,0,1,157.814,119.623Z" transform="translate(-151.05 -106)" fill="#fff"/>
      </g>
    </g>
    <g id="Group_8058" data-name="Group 8058" transform="translate(10.936 55.329)">
      <g id="Group_8057" data-name="Group 8057">
        <path id="Path_3459" data-name="Path 3459" d="M213.332,226a2.332,2.332,0,1,0,2.332,2.332A2.335,2.335,0,0,0,213.332,226Zm0,3.11a.777.777,0,1,1,.777-.777A.778.778,0,0,1,213.332,229.11Z" transform="translate(-211 -226)" fill="#fff"/>
      </g>
    </g>
  </g>
</svg>
