<svg xmlns="http://www.w3.org/2000/svg" width="41" height="41" viewBox="0 0 41 41">
  <g id="Group_8106" data-name="Group 8106" transform="translate(-1756 -10480)">
    <rect id="Rectangle_1089" data-name="Rectangle 1089" width="41" height="41" rx="20.5" transform="translate(1756 10480)" fill="#06c168"/>
    <path id="check" d="M7.441,29.458a.42.42,0,0,1-.611.031L.138,23.156a.445.445,0,0,1-.017-.626l2.132-2.253a.445.445,0,0,1,.626-.017l3.656,3.46a.42.42,0,0,0,.611-.031l7.142-8.3a.444.444,0,0,1,.625-.047l2.351,2.023a.444.444,0,0,1,.047.625Z" transform="translate(1768 10478.765)" fill="#fff"/>
  </g>
</svg>
