<svg xmlns="http://www.w3.org/2000/svg" width="78.004" height="21.64" viewBox="0 0 78.004 21.64">
  <g id="Group_3" data-name="Group 3" transform="translate(-94 -380)">
    <g id="Group_2" data-name="Group 2" transform="translate(94 380)">
      <path id="Path_1" data-name="Path 1" d="M34.348,75.479a5.3,5.3,0,0,1,1.26,3.721v6.912H30.936V79.79a1.577,1.577,0,0,0-.454-1.2,1.943,1.943,0,0,0-2.445,0,1.583,1.583,0,0,0-.443,1.2v6.317H22.921V79.79a1.577,1.577,0,0,0-.454-1.2,1.943,1.943,0,0,0-2.445,0,1.583,1.583,0,0,0-.443,1.2v6.317H14.9V74.187h3.083a1.606,1.606,0,0,1,1.606,1.606h0a3.772,3.772,0,0,1,1.385-1.228,4.355,4.355,0,0,1,2.061-.465,4.562,4.562,0,0,1,2.282.562A4.215,4.215,0,0,1,26.9,76.236a5.34,5.34,0,0,1,1.671-1.531,4.314,4.314,0,0,1,2.239-.6A4.541,4.541,0,0,1,34.348,75.479Z" transform="translate(-14.9 -70.471)" fill="#fff"/>
      <path id="Path_2" data-name="Path 2" d="M435.571,79.839h-7.5a1.923,1.923,0,0,0,.4,1.217,1.231,1.231,0,0,0,.887.33,1.14,1.14,0,0,0,1.1-.7h4.965a5.178,5.178,0,0,1-1.065,2.271,5.745,5.745,0,0,1-2.05,1.585,6.27,6.27,0,0,1-2.715.579,6.6,6.6,0,0,1-3.158-.741,5.269,5.269,0,0,1-2.158-2.125,7.194,7.194,0,0,1,0-6.49,5.27,5.27,0,0,1,2.158-2.125,7.149,7.149,0,0,1,6.317-.011,5.265,5.265,0,0,1,2.158,2.082,6.337,6.337,0,0,1,.773,3.191A4.826,4.826,0,0,1,435.571,79.839Zm-4.651-1.925a1.263,1.263,0,0,0-.379-1.006,1.415,1.415,0,0,0-.952-.33,1.367,1.367,0,0,0-1.482,1.33h2.812Z" transform="translate(-401.402 -69.336)" fill="#fff"/>
      <path id="Path_3" data-name="Path 3" d="M982.694,7V22.635H978V7Z" transform="translate(-925.913 -7)" fill="#fff"/>
      <path id="Path_4" data-name="Path 4" d="M672.739,34.459,667.287,19.5h-5.408L656.4,34.459h4.759l-.925-2.244h.454a.626.626,0,0,1,.519-.308.914.914,0,0,1,.9-1.06.872.872,0,0,1,.5.151.748.748,0,0,1,.633-.216.586.586,0,0,1,.546-.422.574.574,0,0,1,.53.319.909.909,0,0,1,.741.081.613.613,0,0,1,.454-.2.623.623,0,0,1,.6.449.755.755,0,0,1,.5.162.584.584,0,0,1,1.011.525.909.909,0,0,1,.844.519h.476l-.925,2.244ZM665.324,27.7a1.037,1.037,0,0,0-.416-.838c-.443-.319-.3-1.071-.3-1.071a2.573,2.573,0,0,0-.281,1.909s-.26-.357-.5-.395-.384-.384-.384-.384a.827.827,0,0,0,.384.676c-1.909-.887-.308-2.207-.308-2.207-.184.7.319.876.319.876a1.545,1.545,0,0,1,.568-1.947.76.76,0,0,0,.443-.973,1.117,1.117,0,0,1,.308,1.309c-.281.914.222,1.06.222,1.06a.719.719,0,0,1-.146-.519.877.877,0,0,1,.395-.638c-.211.741.638,1.109.638,1.99A1.3,1.3,0,0,1,665.324,27.7Z" transform="translate(-621.706 -18.824)" fill="#06c168"/>
    </g>
    <g id="Group_1" data-name="Group 1" transform="translate(152.729 387.921)">
      <path id="Path_5" data-name="Path 5" d="M1118.079,153.652a4.925,4.925,0,0,0-3.548,1.925,1.8,1.8,0,0,0,.043-.379,2.064,2.064,0,0,0-.335-1.174.961.961,0,0,0-.909-.454q-.316.024-1.185.844c-.817.763-1.26,1.168-1.33,1.228l.508.573a1.924,1.924,0,0,1,.7-.4c.238,0,.335.141.3.422a16.565,16.565,0,0,1-.243,1.893,3.154,3.154,0,0,1-1.909,1.174c-.535,0-.784-.33-.741-1,.016-.184.1-.66.276-1.439a10.773,10.773,0,0,0,.254-1.65q.041-1.712-1.563-1.752c-1.309-.043-2.174.692-2.6,2.2a1.91,1.91,0,0,1,.708-.146.621.621,0,0,1,.514.243.8.8,0,0,1,.173.562,2.877,2.877,0,0,1-.844,1.763,2.188,2.188,0,0,1-1.46.941c-.3,0-.438-.254-.427-.763a10.058,10.058,0,0,1,.222-1.531,12.923,12.923,0,0,0,.243-1.66,1.579,1.579,0,0,0-.352-1.13,1.149,1.149,0,0,0-1.044-.368,3,3,0,0,0-1.374.844c-.449.411-.9.817-1.352,1.228l.487.573a2.268,2.268,0,0,1,.719-.443c.265,0,.395.184.379.552a12.5,12.5,0,0,1-.341,1.4,8.732,8.732,0,0,0-.357,1.86,1.984,1.984,0,0,0,.314,1.33,1.585,1.585,0,0,0,1.476.487,5.12,5.12,0,0,0,2.526-.973,9,9,0,0,0,1.055-.844,1.948,1.948,0,0,0-.065.487,1.522,1.522,0,0,0,.389,1.076,1.235,1.235,0,0,0,.941.422,4.3,4.3,0,0,0,2.834-1.228,8.4,8.4,0,0,0,.627-.611q-.073.389-.162.811a35.613,35.613,0,0,0-.719,4.538c-.043,1.363.514,2.061,1.671,2.1,1.271.043,2.174-.692,2.726-2.2a1.452,1.452,0,0,1-.655.168.694.694,0,0,1-.508-.319,2.519,2.519,0,0,1-.379-1.6c.016-.638.065-1.287.146-1.952a2.88,2.88,0,0,0,1.417.124,4.979,4.979,0,0,0,3.613-2.158,6.067,6.067,0,0,0,1.12-2.915,3.134,3.134,0,0,0,.022-.4C1120.064,154.442,1119.4,153.679,1118.079,153.652Zm-1.46,4.651a2.2,2.2,0,0,1-1.606,1.184.554.554,0,0,1-.53-.2.951.951,0,0,1-.13-.579,3.758,3.758,0,0,1,.763-1.8c.508-.73,1.006-1.1,1.5-1.1.449,0,.671.27.654.806A3.346,3.346,0,0,1,1116.619,158.3Z" transform="translate(-1100.8 -153.467)" fill="#fff"/>
    </g>
  </g>
</svg>
