<svg id="Group_8062" data-name="Group 8062" xmlns="http://www.w3.org/2000/svg" width="13.411" height="13.411" viewBox="0 0 13.411 13.411">
  <g id="Path_3460" data-name="Path 3460" fill="none">
    <path d="M3.658,0h6.1a3.658,3.658,0,0,1,3.658,3.658v6.1a3.658,3.658,0,0,1-3.658,3.658h-6.1A3.658,3.658,0,0,1,0,9.754v-6.1A3.658,3.658,0,0,1,3.658,0Z" stroke="none"/>
    <path d="M 3.657576560974121 0.9999961853027344 C 2.19218635559082 0.9999961853027344 0.9999961853027344 2.19218635559082 0.9999961853027344 3.657576560974121 L 0.9999961853027344 9.753546714782715 C 0.9999961853027344 11.21894645690918 2.19218635559082 12.41113662719727 3.657576560974121 12.41113662719727 L 9.753546714782715 12.41113662719727 C 11.21894645690918 12.41113662719727 12.41113662719727 11.21894645690918 12.41113662719727 9.753546714782715 L 12.41113662719727 3.657576560974121 C 12.41113662719727 2.19218635559082 11.21894645690918 0.9999961853027344 9.753546714782715 0.9999961853027344 L 3.657576560974121 0.9999961853027344 M 3.657576560974121 -3.814697265625e-06 L 9.753546714782715 -3.814697265625e-06 C 11.7735767364502 -3.814697265625e-06 13.41113662719727 1.637556076049805 13.41113662719727 3.657576560974121 L 13.41113662719727 9.753546714782715 C 13.41113662719727 11.7735767364502 11.7735767364502 13.41113662719727 9.753546714782715 13.41113662719727 L 3.657576560974121 13.41113662719727 C 1.637556076049805 13.41113662719727 -3.814697265625e-06 11.7735767364502 -3.814697265625e-06 9.753546714782715 L -3.814697265625e-06 3.657576560974121 C -3.814697265625e-06 1.637556076049805 1.637556076049805 -3.814697265625e-06 3.657576560974121 -3.814697265625e-06 Z" stroke="none" fill="#00923f"/>
  </g>
  <g id="Path_3461" data-name="Path 3461" transform="translate(3.658 3.658)" fill="#00923f">
    <path d="M 3.047984838485718 5.595964908599854 C 1.643024802207947 5.595964908599854 0.5000048279762268 4.452944755554199 0.5000048279762268 3.047984838485718 C 0.5000048279762268 1.643024802207947 1.643024802207947 0.5000048279762268 3.047984838485718 0.5000048279762268 C 4.452944755554199 0.5000048279762268 5.595964908599854 1.643024802207947 5.595964908599854 3.047984838485718 C 5.595964908599854 4.452944755554199 4.452944755554199 5.595964908599854 3.047984838485718 5.595964908599854 Z" stroke="none"/>
    <path d="M 3.047984838485718 1.000004768371582 C 1.91872501373291 1.000004768371582 1.000004768371582 1.91872501373291 1.000004768371582 3.047984838485718 C 1.000004768371582 4.177244663238525 1.91872501373291 5.095964908599854 3.047984838485718 5.095964908599854 C 4.177244663238525 5.095964908599854 5.095964908599854 4.177244663238525 5.095964908599854 3.047984838485718 C 5.095964908599854 1.91872501373291 4.177244663238525 1.000004768371582 3.047984838485718 1.000004768371582 M 3.047984838485718 4.76837158203125e-06 C 4.731344699859619 4.76837158203125e-06 6.095964908599854 1.364624977111816 6.095964908599854 3.047984838485718 C 6.095964908599854 4.731344699859619 4.731344699859619 6.095964908599854 3.047984838485718 6.095964908599854 C 1.364624977111816 6.095964908599854 4.76837158203125e-06 4.731344699859619 4.76837158203125e-06 3.047984838485718 C 4.76837158203125e-06 1.364624977111816 1.364624977111816 4.76837158203125e-06 3.047984838485718 4.76837158203125e-06 Z" stroke="none" fill="#00923f"/>
  </g>
</svg>
